<svg xmlns="http://www.w3.org/2000/svg" viewBox="0 0 400 120" width="400" height="120" role="img" aria-label="Qatar University Advisor">
  <title>Qatar University Advisor</title>
  <desc>Primary horizontal lockup: astrolabe mark (compass + 8-point star) with English wordmark. Bilingual Arabic context is rendered in HTML beside the SVG to keep the asset universal and scale-safe.</desc>

  <!-- ============ ICON MARK (left side) — 96x96 scaled from 256 viewBox ============ -->
  <g transform="translate(12 12) scale(0.375)">
    <!-- Outer compass circle -->
    <circle cx="128" cy="128" r="110" fill="none" stroke="#156082" stroke-width="4"/>
    <!-- Mid celestial ring (dashed) -->
    <circle cx="128" cy="128" r="96" fill="none" stroke="#156082" stroke-width="1.25" stroke-dasharray="2 5" opacity="0.45"/>
    <!-- Inner guide ring -->
    <circle cx="128" cy="128" r="82" fill="none" stroke="#156082" stroke-width="1" opacity="0.35"/>
    <!-- Radial axes -->
    <g stroke="#156082" stroke-width="1.25" opacity="0.35">
      <line x1="128" y1="22"  x2="128" y2="42"/>
      <line x1="128" y1="214" x2="128" y2="234"/>
      <line x1="22"  y1="128" x2="42"  y2="128"/>
      <line x1="214" y1="128" x2="234" y2="128"/>
    </g>
    <!-- Cardinal ticks -->
    <g fill="#156082">
      <circle cx="128" cy="18"  r="4.5"/>
      <circle cx="128" cy="238" r="4.5"/>
      <circle cx="18"  cy="128" r="4.5"/>
      <circle cx="238" cy="128" r="4.5"/>
    </g>
    <!-- Ordinal ticks -->
    <g fill="#156082" opacity="0.55">
      <circle cx="206" cy="50"  r="2.75"/>
      <circle cx="206" cy="206" r="2.75"/>
      <circle cx="50"  cy="206" r="2.75"/>
      <circle cx="50"  cy="50"  r="2.75"/>
    </g>
    <!-- Outer 8-point star -->
    <polygon
      points="128.00,56.00 138.72,102.13 178.91,77.09 153.87,117.28 200.00,128.00 153.87,138.72 178.91,178.91 138.72,153.87 128.00,200.00 117.28,153.87 77.09,178.91 102.13,138.72 56.00,128.00 102.13,117.28 77.09,77.09 117.28,102.13"
      fill="#156082" stroke="#0E2841" stroke-width="1.25" stroke-linejoin="miter"/>
    <!-- Inner 8-point star -->
    <polygon
      points="135.02,92.69 135.78,116.36 157.93,108.00 141.73,125.27 163.31,135.02 139.64,135.78 148.00,157.93 130.73,141.73 120.98,163.31 120.22,139.64 98.07,148.00 114.27,130.73 92.69,120.98 116.36,120.22 108.00,98.07 125.27,114.27"
      fill="#E97132" opacity="0.92"/>
    <!-- Center dot -->
    <circle cx="128" cy="128" r="7" fill="#FFFFFF"/>
    <circle cx="128" cy="128" r="4" fill="#E97132"/>
    <!-- North indicator -->
    <path d="M 128,4 L 134,18 L 122,18 Z" fill="#E97132"/>
  </g>

  <!-- ============ ENGLISH WORDMARK (right of mark) ============ -->
  <!-- Line 1: "Qatar University" — Inter SemiBold 22px, #156082 -->
  <text x="120" y="56"
        font-family="'Inter','Segoe UI',Arial,sans-serif"
        font-weight="600"
        font-size="22"
        letter-spacing="0.3"
        fill="#156082">Qatar University</text>

  <!-- Line 2: "Advisor" — Inter Medium 22px, #0E2841 -->
  <text x="120" y="84"
        font-family="'Inter','Segoe UI',Arial,sans-serif"
        font-weight="500"
        font-size="22"
        letter-spacing="0.3"
        fill="#0E2841">Advisor</text>
</svg>
